<svg id="svg" version="1.1" width="768" height="768" xmlns="http://www.w3.org/2000/svg" xmlns:xlink="http://www.w3.org/1999/xlink" style="display: block;"><g id="svgg"><path id="path0" d="M162.500 106.250 L 162.500 112.500 150.000 112.500 L 137.500 112.500 137.500 118.750 L 137.500 125.000 131.250 125.000 L 125.000 125.000 125.000 137.500 L 125.000 150.000 118.750 150.000 L 112.500 150.000 112.500 200.000 L 112.500 250.000 118.750 250.000 L 125.000 250.000 125.000 262.500 L 125.000 275.000 131.250 275.000 L 137.500 275.000 137.500 281.250 L 137.500 287.500 150.000 287.500 L 162.500 287.500 162.500 293.750 L 162.500 300.000 200.000 300.000 L 237.500 300.000 237.500 293.750 L 237.500 287.500 250.000 287.500 L 262.500 287.500 262.500 275.000 L 262.500 262.500 268.750 262.500 L 275.000 262.500 275.000 250.000 L 275.000 237.500 281.250 237.500 L 287.500 237.500 287.500 200.000 L 287.500 162.500 281.250 162.500 L 275.000 162.500 275.000 150.000 L 275.000 137.500 268.750 137.500 L 262.500 137.500 262.500 125.000 L 262.500 112.500 250.000 112.500 L 237.500 112.500 237.500 106.250 L 237.500 100.000 200.000 100.000 L 162.500 100.000 162.500 106.250 M212.500 118.750 L 212.500 125.000 225.000 125.000 L 237.500 125.000 237.500 131.250 L 237.500 137.500 243.750 137.500 L 250.000 137.500 250.000 150.000 L 250.000 162.500 256.250 162.500 L 262.500 162.500 262.500 200.000 L 262.500 237.500 256.250 237.500 L 250.000 237.500 250.000 250.000 L 250.000 262.500 243.750 262.500 L 237.500 262.500 237.500 268.750 L 237.500 275.000 225.000 275.000 L 212.500 275.000 212.500 281.250 L 212.500 287.500 193.750 287.500 L 175.000 287.500 175.000 281.250 L 175.000 275.000 162.500 275.000 L 150.000 275.000 150.000 268.750 L 150.000 262.500 143.750 262.500 L 137.500 262.500 137.500 250.000 L 137.500 237.500 131.250 237.500 L 125.000 237.500 125.000 200.000 L 125.000 162.500 131.250 162.500 L 137.500 162.500 137.500 150.000 L 137.500 137.500 143.750 137.500 L 150.000 137.500 150.000 131.250 L 150.000 125.000 162.500 125.000 L 175.000 125.000 175.000 118.750 L 175.000 112.500 193.750 112.500 L 212.500 112.500 212.500 118.750 M212.500 193.750 L 212.500 250.000 193.750 250.000 L 175.000 250.000 175.000 256.250 L 175.000 262.500 200.000 262.500 L 225.000 262.500 225.000 200.000 L 225.000 137.500 218.750 137.500 L 212.500 137.500 212.500 193.750 " stroke="none" fill="#000000" fill-rule="evenodd"></path><path id="path1" d="M175.000 118.750 L 175.000 125.000 162.500 125.000 L 150.000 125.000 150.000 131.250 L 150.000 137.500 143.750 137.500 L 137.500 137.500 137.500 150.000 L 137.500 162.500 131.250 162.500 L 125.000 162.500 125.000 200.000 L 125.000 237.500 131.250 237.500 L 137.500 237.500 137.500 250.000 L 137.500 262.500 143.750 262.500 L 150.000 262.500 150.000 268.750 L 150.000 275.000 156.250 275.000 L 162.500 275.000 162.500 268.750 L 162.500 262.500 156.250 262.500 L 150.000 262.500 150.000 250.000 L 150.000 237.500 143.750 237.500 L 137.500 237.500 137.500 200.000 L 137.500 162.500 143.750 162.500 L 150.000 162.500 150.000 150.000 L 150.000 137.500 162.500 137.500 L 175.000 137.500 175.000 193.750 L 175.000 250.000 181.250 250.000 L 187.500 250.000 187.500 200.000 L 187.500 150.000 200.000 150.000 L 212.500 150.000 212.500 143.750 L 212.500 137.500 193.750 137.500 L 175.000 137.500 175.000 131.250 L 175.000 125.000 193.750 125.000 L 212.500 125.000 212.500 118.750 L 212.500 112.500 193.750 112.500 L 175.000 112.500 175.000 118.750 " stroke="none" fill="#ffffff" fill-rule="evenodd"></path><path id="path2" d="M175.000 131.250 L 175.000 137.500 162.500 137.500 L 150.000 137.500 150.000 150.000 L 150.000 162.500 143.750 162.500 L 137.500 162.500 137.500 200.000 L 137.500 237.500 143.750 237.500 L 150.000 237.500 150.000 250.000 L 150.000 262.500 156.250 262.500 L 162.500 262.500 162.500 268.750 L 162.500 275.000 168.750 275.000 L 175.000 275.000 175.000 281.250 L 175.000 287.500 193.750 287.500 L 212.500 287.500 212.500 281.250 L 212.500 275.000 225.000 275.000 L 237.500 275.000 237.500 268.750 L 237.500 262.500 243.750 262.500 L 250.000 262.500 250.000 250.000 L 250.000 237.500 256.250 237.500 L 262.500 237.500 262.500 200.000 L 262.500 162.500 256.250 162.500 L 250.000 162.500 250.000 150.000 L 250.000 137.500 243.750 137.500 L 237.500 137.500 237.500 131.250 L 237.500 125.000 206.250 125.000 L 175.000 125.000 175.000 131.250 M225.000 200.000 L 225.000 262.500 200.000 262.500 L 175.000 262.500 175.000 200.000 L 175.000 137.500 200.000 137.500 L 225.000 137.500 225.000 200.000 M187.500 200.000 L 187.500 250.000 200.000 250.000 L 212.500 250.000 212.500 200.000 L 212.500 150.000 200.000 150.000 L 187.500 150.000 187.500 200.000 " stroke="none" fill="#ffee00" fill-rule="evenodd"></path></g></svg>