<svg xmlns:xlink="http://www.w3.org/1999/xlink" id="svg" version="1.1" width="768" height="768"
     xmlns="http://www.w3.org/2000/svg" style="display: block;">
    <g id="svgg">
        <path id="path0"
              d="M225.000 231.250 L 225.000 237.500 231.250 237.500 L 237.500 237.500 237.500 231.250 L 237.500 225.000 231.250 225.000 L 225.000 225.000 225.000 231.250 "
              stroke="none" fill="#000000" fill-rule="evenodd"></path>
        <path id="path1"
              d="M137.500 106.250 L 137.500 112.500 131.250 112.500 L 125.000 112.500 125.000 118.750 L 125.000 125.000 118.750 125.000 L 112.500 125.000 112.500 181.250 L 112.500 237.500 118.750 237.500 L 125.000 237.500 125.000 262.500 L 125.000 287.500 131.250 287.500 L 137.500 287.500 137.500 293.750 L 137.500 300.000 143.750 300.000 L 150.000 300.000 150.000 293.750 L 150.000 287.500 143.750 287.500 L 137.500 287.500 137.500 206.250 L 137.500 125.000 143.750 125.000 L 150.000 125.000 150.000 118.750 L 150.000 112.500 162.500 112.500 L 175.000 112.500 175.000 118.750 L 175.000 125.000 187.500 125.000 L 200.000 125.000 200.000 118.750 L 200.000 112.500 193.750 112.500 L 187.500 112.500 187.500 106.250 L 187.500 100.000 162.500 100.000 L 137.500 100.000 137.500 106.250 M225.000 106.250 L 225.000 112.500 218.750 112.500 L 212.500 112.500 212.500 118.750 L 212.500 125.000 231.250 125.000 L 250.000 125.000 250.000 112.500 L 250.000 100.000 237.500 100.000 L 225.000 100.000 225.000 106.250 "
              stroke="none" fill="#3c2109" fill-rule="evenodd"></path>
        <path id="path2"
              d="M137.500 131.250 L 137.500 137.500 156.250 137.500 L 175.000 137.500 175.000 131.250 L 175.000 125.000 156.250 125.000 L 137.500 125.000 137.500 131.250 M162.500 268.750 L 162.500 287.500 156.250 287.500 L 150.000 287.500 150.000 293.750 L 150.000 300.000 181.250 300.000 L 212.500 300.000 212.500 293.750 L 212.500 287.500 193.750 287.500 L 175.000 287.500 175.000 268.750 L 175.000 250.000 168.750 250.000 L 162.500 250.000 162.500 268.750 "
              stroke="none" fill="#542603" fill-rule="evenodd"></path>
        <path id="path3"
              d="M162.500 237.500 L 162.500 250.000 168.750 250.000 L 175.000 250.000 175.000 237.500 L 175.000 225.000 168.750 225.000 L 162.500 225.000 162.500 237.500 M275.000 268.750 L 275.000 287.500 243.750 287.500 L 212.500 287.500 212.500 293.750 L 212.500 300.000 243.750 300.000 L 275.000 300.000 275.000 293.750 L 275.000 287.500 281.250 287.500 L 287.500 287.500 287.500 268.750 L 287.500 250.000 281.250 250.000 L 275.000 250.000 275.000 268.750 M175.000 281.250 L 175.000 287.500 181.250 287.500 L 187.500 287.500 187.500 281.250 L 187.500 275.000 181.250 275.000 L 175.000 275.000 175.000 281.250 "
              stroke="none" fill="#723403" fill-rule="evenodd"></path>
        <path id="path4"
              d="M225.000 243.750 L 225.000 250.000 231.250 250.000 L 237.500 250.000 237.500 243.750 L 237.500 237.500 231.250 237.500 L 225.000 237.500 225.000 243.750 "
              stroke="none" fill="#747270" fill-rule="evenodd"></path>
        <path id="path5"
              d="M175.000 131.250 L 175.000 137.500 168.750 137.500 L 162.500 137.500 162.500 181.250 L 162.500 225.000 168.750 225.000 L 175.000 225.000 175.000 231.250 L 175.000 237.500 200.000 237.500 L 225.000 237.500 225.000 231.250 L 225.000 225.000 200.000 225.000 L 175.000 225.000 175.000 181.250 L 175.000 137.500 218.750 137.500 L 262.500 137.500 262.500 131.250 L 262.500 125.000 218.750 125.000 L 175.000 125.000 175.000 131.250 M275.000 193.750 L 275.000 225.000 256.250 225.000 L 237.500 225.000 237.500 231.250 L 237.500 237.500 256.250 237.500 L 275.000 237.500 275.000 243.750 L 275.000 250.000 281.250 250.000 L 287.500 250.000 287.500 206.250 L 287.500 162.500 281.250 162.500 L 275.000 162.500 275.000 193.750 M137.500 237.500 L 137.500 287.500 150.000 287.500 L 162.500 287.500 162.500 262.500 L 162.500 237.500 156.250 237.500 L 150.000 237.500 150.000 212.500 L 150.000 187.500 143.750 187.500 L 137.500 187.500 137.500 237.500 M187.500 268.750 L 187.500 275.000 193.750 275.000 L 200.000 275.000 200.000 281.250 L 200.000 287.500 206.250 287.500 L 212.500 287.500 212.500 281.250 L 212.500 275.000 218.750 275.000 L 225.000 275.000 225.000 281.250 L 225.000 287.500 231.250 287.500 L 237.500 287.500 237.500 281.250 L 237.500 275.000 243.750 275.000 L 250.000 275.000 250.000 281.250 L 250.000 287.500 256.250 287.500 L 262.500 287.500 262.500 281.250 L 262.500 275.000 268.750 275.000 L 275.000 275.000 275.000 268.750 L 275.000 262.500 268.750 262.500 L 262.500 262.500 262.500 268.750 L 262.500 275.000 256.250 275.000 L 250.000 275.000 250.000 268.750 L 250.000 262.500 243.750 262.500 L 237.500 262.500 237.500 268.750 L 237.500 275.000 231.250 275.000 L 225.000 275.000 225.000 268.750 L 225.000 262.500 218.750 262.500 L 212.500 262.500 212.500 268.750 L 212.500 275.000 206.250 275.000 L 200.000 275.000 200.000 268.750 L 200.000 262.500 193.750 262.500 L 187.500 262.500 187.500 268.750 "
              stroke="none" fill="#904203" fill-rule="evenodd"></path>
        <path id="path6"
              d="M225.000 218.750 L 225.000 225.000 231.250 225.000 L 237.500 225.000 237.500 218.750 L 237.500 212.500 231.250 212.500 L 225.000 212.500 225.000 218.750 "
              stroke="none" fill="#908c88" fill-rule="evenodd"></path>
        <path id="path7"
              d="M137.500 162.500 L 137.500 187.500 143.750 187.500 L 150.000 187.500 150.000 212.500 L 150.000 237.500 156.250 237.500 L 162.500 237.500 162.500 187.500 L 162.500 137.500 150.000 137.500 L 137.500 137.500 137.500 162.500 M175.000 181.250 L 175.000 225.000 200.000 225.000 L 225.000 225.000 225.000 218.750 L 225.000 212.500 218.750 212.500 L 212.500 212.500 212.500 200.000 L 212.500 187.500 206.250 187.500 L 200.000 187.500 200.000 175.000 L 200.000 162.500 193.750 162.500 L 187.500 162.500 187.500 150.000 L 187.500 137.500 181.250 137.500 L 175.000 137.500 175.000 181.250 M175.000 256.250 L 175.000 275.000 181.250 275.000 L 187.500 275.000 187.500 281.250 L 187.500 287.500 193.750 287.500 L 200.000 287.500 200.000 281.250 L 200.000 275.000 206.250 275.000 L 212.500 275.000 212.500 281.250 L 212.500 287.500 218.750 287.500 L 225.000 287.500 225.000 281.250 L 225.000 275.000 218.750 275.000 L 212.500 275.000 212.500 268.750 L 212.500 262.500 206.250 262.500 L 200.000 262.500 200.000 256.250 L 200.000 250.000 193.750 250.000 L 187.500 250.000 187.500 243.750 L 187.500 237.500 181.250 237.500 L 175.000 237.500 175.000 256.250 M200.000 268.750 L 200.000 275.000 193.750 275.000 L 187.500 275.000 187.500 268.750 L 187.500 262.500 193.750 262.500 L 200.000 262.500 200.000 268.750 "
              stroke="none" fill="#a56307" fill-rule="evenodd"></path>
        <path id="path8"
              d="M262.500 131.250 L 262.500 137.500 268.750 137.500 L 275.000 137.500 275.000 150.000 L 275.000 162.500 281.250 162.500 L 287.500 162.500 287.500 150.000 L 287.500 137.500 281.250 137.500 L 275.000 137.500 275.000 131.250 L 275.000 125.000 268.750 125.000 L 262.500 125.000 262.500 131.250 "
              stroke="none" fill="#bd5703" fill-rule="evenodd"></path>
        <path id="path9"
              d="M187.500 150.000 L 187.500 162.500 193.750 162.500 L 200.000 162.500 200.000 175.000 L 200.000 187.500 206.250 187.500 L 212.500 187.500 212.500 200.000 L 212.500 212.500 225.000 212.500 L 237.500 212.500 237.500 218.750 L 237.500 225.000 256.250 225.000 L 275.000 225.000 275.000 181.250 L 275.000 137.500 231.250 137.500 L 187.500 137.500 187.500 150.000 M187.500 243.750 L 187.500 250.000 193.750 250.000 L 200.000 250.000 200.000 256.250 L 200.000 262.500 212.500 262.500 L 225.000 262.500 225.000 268.750 L 225.000 275.000 231.250 275.000 L 237.500 275.000 237.500 281.250 L 237.500 287.500 243.750 287.500 L 250.000 287.500 250.000 281.250 L 250.000 275.000 256.250 275.000 L 262.500 275.000 262.500 281.250 L 262.500 287.500 268.750 287.500 L 275.000 287.500 275.000 281.250 L 275.000 275.000 268.750 275.000 L 262.500 275.000 262.500 268.750 L 262.500 262.500 268.750 262.500 L 275.000 262.500 275.000 250.000 L 275.000 237.500 256.250 237.500 L 237.500 237.500 237.500 243.750 L 237.500 250.000 231.250 250.000 L 225.000 250.000 225.000 243.750 L 225.000 237.500 206.250 237.500 L 187.500 237.500 187.500 243.750 M250.000 268.750 L 250.000 275.000 243.750 275.000 L 237.500 275.000 237.500 268.750 L 237.500 262.500 243.750 262.500 L 250.000 262.500 250.000 268.750 "
              stroke="none" fill="#c37509" fill-rule="evenodd"></path>
    </g>
</svg>