<svg id="svg" version="1.1" width="768" height="768" xmlns="http://www.w3.org/2000/svg" xmlns:xlink="http://www.w3.org/1999/xlink" style="display: block;"><g id="svgg"><path id="path0" d="M62.500 56.250 L 62.500 62.500 56.250 62.500 L 50.000 62.500 50.000 106.250 L 50.000 150.000 62.500 150.000 L 75.000 150.000 75.000 143.750 L 75.000 137.500 68.750 137.500 L 62.500 137.500 62.500 106.250 L 62.500 75.000 68.750 75.000 L 75.000 75.000 75.000 68.750 L 75.000 62.500 193.750 62.500 L 312.500 62.500 312.500 68.750 L 312.500 75.000 306.250 75.000 L 300.000 75.000 300.000 118.750 L 300.000 162.500 306.250 162.500 L 312.500 162.500 312.500 168.750 L 312.500 175.000 318.750 175.000 L 325.000 175.000 325.000 181.250 L 325.000 187.500 331.250 187.500 L 337.500 187.500 337.500 237.500 L 337.500 287.500 325.000 287.500 L 312.500 287.500 312.500 281.250 L 312.500 275.000 318.750 275.000 L 325.000 275.000 325.000 262.500 L 325.000 250.000 318.750 250.000 L 312.500 250.000 312.500 256.250 L 312.500 262.500 300.000 262.500 L 287.500 262.500 287.500 281.250 L 287.500 300.000 306.250 300.000 L 325.000 300.000 325.000 318.750 L 325.000 337.500 306.250 337.500 L 287.500 337.500 287.500 343.750 L 287.500 350.000 312.500 350.000 L 337.500 350.000 337.500 325.000 L 337.500 300.000 343.750 300.000 L 350.000 300.000 350.000 243.750 L 350.000 187.500 343.750 187.500 L 337.500 187.500 337.500 175.000 L 337.500 162.500 331.250 162.500 L 325.000 162.500 325.000 156.250 L 325.000 150.000 318.750 150.000 L 312.500 150.000 312.500 118.750 L 312.500 87.500 318.750 87.500 L 325.000 87.500 325.000 81.250 L 325.000 75.000 337.500 75.000 L 350.000 75.000 350.000 81.250 L 350.000 87.500 356.250 87.500 L 362.500 87.500 362.500 75.000 L 362.500 62.500 356.250 62.500 L 350.000 62.500 350.000 56.250 L 350.000 50.000 206.250 50.000 L 62.500 50.000 62.500 56.250 M87.500 93.750 L 87.500 100.000 93.750 100.000 L 100.000 100.000 100.000 106.250 L 100.000 112.500 93.750 112.500 L 87.500 112.500 87.500 118.750 L 87.500 125.000 93.750 125.000 L 100.000 125.000 100.000 118.750 L 100.000 112.500 106.250 112.500 L 112.500 112.500 112.500 106.250 L 112.500 100.000 106.250 100.000 L 100.000 100.000 100.000 93.750 L 100.000 87.500 93.750 87.500 L 87.500 87.500 87.500 93.750 M162.500 93.750 L 162.500 100.000 168.750 100.000 L 175.000 100.000 175.000 106.250 L 175.000 112.500 168.750 112.500 L 162.500 112.500 162.500 118.750 L 162.500 125.000 168.750 125.000 L 175.000 125.000 175.000 118.750 L 175.000 112.500 181.250 112.500 L 187.500 112.500 187.500 100.000 L 187.500 87.500 175.000 87.500 L 162.500 87.500 162.500 93.750 M212.500 93.750 L 212.500 100.000 206.250 100.000 L 200.000 100.000 200.000 112.500 L 200.000 125.000 206.250 125.000 L 212.500 125.000 212.500 118.750 L 212.500 112.500 218.750 112.500 L 225.000 112.500 225.000 100.000 L 225.000 87.500 218.750 87.500 L 212.500 87.500 212.500 93.750 M125.000 106.250 L 125.000 112.500 131.250 112.500 L 137.500 112.500 137.500 118.750 L 137.500 125.000 143.750 125.000 L 150.000 125.000 150.000 118.750 L 150.000 112.500 143.750 112.500 L 137.500 112.500 137.500 106.250 L 137.500 100.000 131.250 100.000 L 125.000 100.000 125.000 106.250 M75.000 168.750 L 75.000 175.000 68.750 175.000 L 62.500 175.000 62.500 181.250 L 62.500 187.500 56.250 187.500 L 50.000 187.500 50.000 200.000 L 50.000 212.500 62.500 212.500 L 75.000 212.500 75.000 206.250 L 75.000 200.000 81.250 200.000 L 87.500 200.000 87.500 237.500 L 87.500 275.000 81.250 275.000 L 75.000 275.000 75.000 287.500 L 75.000 300.000 62.500 300.000 L 50.000 300.000 50.000 306.250 L 50.000 312.500 43.750 312.500 L 37.500 312.500 37.500 325.000 L 37.500 337.500 100.000 337.500 L 162.500 337.500 162.500 343.750 L 162.500 350.000 200.000 350.000 L 237.500 350.000 237.500 343.750 L 237.500 337.500 200.000 337.500 L 162.500 337.500 162.500 331.250 L 162.500 325.000 112.500 325.000 L 62.500 325.000 62.500 318.750 L 62.500 312.500 75.000 312.500 L 87.500 312.500 87.500 300.000 L 87.500 287.500 93.750 287.500 L 100.000 287.500 100.000 256.250 L 100.000 225.000 137.500 225.000 L 175.000 225.000 175.000 218.750 L 175.000 212.500 150.000 212.500 L 125.000 212.500 125.000 206.250 L 125.000 200.000 143.750 200.000 L 162.500 200.000 162.500 193.750 L 162.500 187.500 168.750 187.500 L 175.000 187.500 175.000 181.250 L 175.000 175.000 168.750 175.000 L 162.500 175.000 162.500 181.250 L 162.500 187.500 150.000 187.500 L 137.500 187.500 137.500 181.250 L 137.500 175.000 131.250 175.000 L 125.000 175.000 125.000 168.750 L 125.000 162.500 100.000 162.500 L 75.000 162.500 75.000 168.750 M237.500 168.750 L 237.500 175.000 231.250 175.000 L 225.000 175.000 225.000 181.250 L 225.000 187.500 218.750 187.500 L 212.500 187.500 212.500 181.250 L 212.500 175.000 200.000 175.000 L 187.500 175.000 187.500 187.500 L 187.500 200.000 193.750 200.000 L 200.000 200.000 200.000 193.750 L 200.000 187.500 206.250 187.500 L 212.500 187.500 212.500 193.750 L 212.500 200.000 218.750 200.000 L 225.000 200.000 225.000 193.750 L 225.000 187.500 231.250 187.500 L 237.500 187.500 237.500 181.250 L 237.500 175.000 243.750 175.000 L 250.000 175.000 250.000 168.750 L 250.000 162.500 243.750 162.500 L 237.500 162.500 237.500 168.750 M125.000 193.750 L 125.000 200.000 106.250 200.000 L 87.500 200.000 87.500 193.750 L 87.500 187.500 106.250 187.500 L 125.000 187.500 125.000 193.750 M162.500 243.750 L 162.500 250.000 168.750 250.000 L 175.000 250.000 175.000 256.250 L 175.000 262.500 181.250 262.500 L 187.500 262.500 187.500 268.750 L 187.500 275.000 193.750 275.000 L 200.000 275.000 200.000 281.250 L 200.000 287.500 187.500 287.500 L 175.000 287.500 175.000 281.250 L 175.000 275.000 168.750 275.000 L 162.500 275.000 162.500 268.750 L 162.500 262.500 156.250 262.500 L 150.000 262.500 150.000 268.750 L 150.000 275.000 156.250 275.000 L 162.500 275.000 162.500 281.250 L 162.500 287.500 168.750 287.500 L 175.000 287.500 175.000 293.750 L 175.000 300.000 200.000 300.000 L 225.000 300.000 225.000 293.750 L 225.000 287.500 218.750 287.500 L 212.500 287.500 212.500 275.000 L 212.500 262.500 206.250 262.500 L 200.000 262.500 200.000 256.250 L 200.000 250.000 193.750 250.000 L 187.500 250.000 187.500 243.750 L 187.500 237.500 175.000 237.500 L 162.500 237.500 162.500 243.750 M125.000 268.750 L 125.000 275.000 118.750 275.000 L 112.500 275.000 112.500 281.250 L 112.500 287.500 118.750 287.500 L 125.000 287.500 125.000 293.750 L 125.000 300.000 137.500 300.000 L 150.000 300.000 150.000 293.750 L 150.000 287.500 143.750 287.500 L 137.500 287.500 137.500 275.000 L 137.500 262.500 131.250 262.500 L 125.000 262.500 125.000 268.750 " stroke="none" fill="#000000" fill-rule="evenodd"></path><path id="path1" d="M275.000 281.250 L 275.000 300.000 281.250 300.000 L 287.500 300.000 287.500 306.250 L 287.500 312.500 281.250 312.500 L 275.000 312.500 275.000 331.250 L 275.000 350.000 281.250 350.000 L 287.500 350.000 287.500 343.750 L 287.500 337.500 306.250 337.500 L 325.000 337.500 325.000 318.750 L 325.000 300.000 306.250 300.000 L 287.500 300.000 287.500 281.250 L 287.500 262.500 281.250 262.500 L 275.000 262.500 275.000 281.250 " stroke="none" fill="#101010" fill-rule="evenodd"></path><path id="path2" d="M87.500 193.750 L 87.500 200.000 81.250 200.000 L 75.000 200.000 75.000 212.500 L 75.000 225.000 81.250 225.000 L 87.500 225.000 87.500 212.500 L 87.500 200.000 106.250 200.000 L 125.000 200.000 125.000 206.250 L 125.000 212.500 143.750 212.500 L 162.500 212.500 162.500 206.250 L 162.500 200.000 143.750 200.000 L 125.000 200.000 125.000 193.750 L 125.000 187.500 106.250 187.500 L 87.500 187.500 87.500 193.750 M125.000 231.250 L 125.000 237.500 150.000 237.500 L 175.000 237.500 175.000 231.250 L 175.000 225.000 150.000 225.000 L 125.000 225.000 125.000 231.250 M250.000 262.500 L 250.000 275.000 256.250 275.000 L 262.500 275.000 262.500 281.250 L 262.500 287.500 250.000 287.500 L 237.500 287.500 237.500 318.750 L 237.500 350.000 256.250 350.000 L 275.000 350.000 275.000 331.250 L 275.000 312.500 281.250 312.500 L 287.500 312.500 287.500 306.250 L 287.500 300.000 281.250 300.000 L 275.000 300.000 275.000 281.250 L 275.000 262.500 268.750 262.500 L 262.500 262.500 262.500 256.250 L 262.500 250.000 256.250 250.000 L 250.000 250.000 250.000 262.500 M287.500 256.250 L 287.500 262.500 300.000 262.500 L 312.500 262.500 312.500 256.250 L 312.500 250.000 300.000 250.000 L 287.500 250.000 287.500 256.250 " stroke="none" fill="#181818" fill-rule="evenodd"></path><path id="path3" d="M262.500 168.750 L 262.500 175.000 268.750 175.000 L 275.000 175.000 275.000 181.250 L 275.000 187.500 268.750 187.500 L 262.500 187.500 262.500 193.750 L 262.500 200.000 268.750 200.000 L 275.000 200.000 275.000 193.750 L 275.000 187.500 281.250 187.500 L 287.500 187.500 287.500 193.750 L 287.500 200.000 293.750 200.000 L 300.000 200.000 300.000 193.750 L 300.000 187.500 293.750 187.500 L 287.500 187.500 287.500 181.250 L 287.500 175.000 293.750 175.000 L 300.000 175.000 300.000 168.750 L 300.000 162.500 293.750 162.500 L 287.500 162.500 287.500 168.750 L 287.500 175.000 281.250 175.000 L 275.000 175.000 275.000 168.750 L 275.000 162.500 268.750 162.500 L 262.500 162.500 262.500 168.750 " stroke="none" fill="#b60d0d" fill-rule="evenodd"></path><path id="path4" d="M287.500 68.750 L 287.500 75.000 281.250 75.000 L 275.000 75.000 275.000 81.250 L 275.000 87.500 281.250 87.500 L 287.500 87.500 287.500 93.750 L 287.500 100.000 281.250 100.000 L 275.000 100.000 275.000 125.000 L 275.000 150.000 281.250 150.000 L 287.500 150.000 287.500 156.250 L 287.500 162.500 293.750 162.500 L 300.000 162.500 300.000 175.000 L 300.000 187.500 306.250 187.500 L 312.500 187.500 312.500 218.750 L 312.500 250.000 318.750 250.000 L 325.000 250.000 325.000 262.500 L 325.000 275.000 318.750 275.000 L 312.500 275.000 312.500 281.250 L 312.500 287.500 325.000 287.500 L 337.500 287.500 337.500 237.500 L 337.500 187.500 331.250 187.500 L 325.000 187.500 325.000 181.250 L 325.000 175.000 318.750 175.000 L 312.500 175.000 312.500 168.750 L 312.500 162.500 306.250 162.500 L 300.000 162.500 300.000 118.750 L 300.000 75.000 306.250 75.000 L 312.500 75.000 312.500 68.750 L 312.500 62.500 300.000 62.500 L 287.500 62.500 287.500 68.750 M162.500 331.250 L 162.500 337.500 200.000 337.500 L 237.500 337.500 237.500 331.250 L 237.500 325.000 200.000 325.000 L 162.500 325.000 162.500 331.250 " stroke="none" fill="#7d5532" fill-rule="evenodd"></path><path id="path5" d="M237.500 68.750 L 237.500 75.000 231.250 75.000 L 225.000 75.000 225.000 125.000 L 225.000 175.000 231.250 175.000 L 237.500 175.000 237.500 187.500 L 237.500 200.000 243.750 200.000 L 250.000 200.000 250.000 206.250 L 250.000 212.500 237.500 212.500 L 225.000 212.500 225.000 218.750 L 225.000 225.000 200.000 225.000 L 175.000 225.000 175.000 231.250 L 175.000 237.500 181.250 237.500 L 187.500 237.500 187.500 243.750 L 187.500 250.000 193.750 250.000 L 200.000 250.000 200.000 256.250 L 200.000 262.500 206.250 262.500 L 212.500 262.500 212.500 275.000 L 212.500 287.500 218.750 287.500 L 225.000 287.500 225.000 293.750 L 225.000 300.000 200.000 300.000 L 175.000 300.000 175.000 293.750 L 175.000 287.500 187.500 287.500 L 200.000 287.500 200.000 281.250 L 200.000 275.000 193.750 275.000 L 187.500 275.000 187.500 268.750 L 187.500 262.500 181.250 262.500 L 175.000 262.500 175.000 256.250 L 175.000 250.000 168.750 250.000 L 162.500 250.000 162.500 243.750 L 162.500 237.500 143.750 237.500 L 125.000 237.500 125.000 231.250 L 125.000 225.000 112.500 225.000 L 100.000 225.000 100.000 256.250 L 100.000 287.500 93.750 287.500 L 87.500 287.500 87.500 300.000 L 87.500 312.500 75.000 312.500 L 62.500 312.500 62.500 318.750 L 62.500 325.000 150.000 325.000 L 237.500 325.000 237.500 306.250 L 237.500 287.500 250.000 287.500 L 262.500 287.500 262.500 281.250 L 262.500 275.000 256.250 275.000 L 250.000 275.000 250.000 262.500 L 250.000 250.000 281.250 250.000 L 312.500 250.000 312.500 218.750 L 312.500 187.500 306.250 187.500 L 300.000 187.500 300.000 181.250 L 300.000 175.000 293.750 175.000 L 287.500 175.000 287.500 162.500 L 287.500 150.000 281.250 150.000 L 275.000 150.000 275.000 131.250 L 275.000 112.500 268.750 112.500 L 262.500 112.500 262.500 106.250 L 262.500 100.000 268.750 100.000 L 275.000 100.000 275.000 87.500 L 275.000 75.000 281.250 75.000 L 287.500 75.000 287.500 68.750 L 287.500 62.500 262.500 62.500 L 237.500 62.500 237.500 68.750 M250.000 106.250 L 250.000 112.500 256.250 112.500 L 262.500 112.500 262.500 118.750 L 262.500 125.000 256.250 125.000 L 250.000 125.000 250.000 118.750 L 250.000 112.500 243.750 112.500 L 237.500 112.500 237.500 106.250 L 237.500 100.000 243.750 100.000 L 250.000 100.000 250.000 106.250 M250.000 168.750 L 250.000 175.000 243.750 175.000 L 237.500 175.000 237.500 168.750 L 237.500 162.500 243.750 162.500 L 250.000 162.500 250.000 168.750 M275.000 168.750 L 275.000 175.000 281.250 175.000 L 287.500 175.000 287.500 181.250 L 287.500 187.500 293.750 187.500 L 300.000 187.500 300.000 193.750 L 300.000 200.000 293.750 200.000 L 287.500 200.000 287.500 193.750 L 287.500 187.500 281.250 187.500 L 275.000 187.500 275.000 193.750 L 275.000 200.000 268.750 200.000 L 262.500 200.000 262.500 193.750 L 262.500 187.500 268.750 187.500 L 275.000 187.500 275.000 181.250 L 275.000 175.000 268.750 175.000 L 262.500 175.000 262.500 168.750 L 262.500 162.500 268.750 162.500 L 275.000 162.500 275.000 168.750 M137.500 275.000 L 137.500 287.500 143.750 287.500 L 150.000 287.500 150.000 293.750 L 150.000 300.000 137.500 300.000 L 125.000 300.000 125.000 293.750 L 125.000 287.500 118.750 287.500 L 112.500 287.500 112.500 281.250 L 112.500 275.000 118.750 275.000 L 125.000 275.000 125.000 268.750 L 125.000 262.500 131.250 262.500 L 137.500 262.500 137.500 275.000 M162.500 268.750 L 162.500 275.000 168.750 275.000 L 175.000 275.000 175.000 281.250 L 175.000 287.500 168.750 287.500 L 162.500 287.500 162.500 281.250 L 162.500 275.000 156.250 275.000 L 150.000 275.000 150.000 268.750 L 150.000 262.500 156.250 262.500 L 162.500 262.500 162.500 268.750 " stroke="none" fill="#95653c" fill-rule="evenodd"></path><path id="path6" d="M137.500 68.750 L 137.500 75.000 131.250 75.000 L 125.000 75.000 125.000 81.250 L 125.000 87.500 118.750 87.500 L 112.500 87.500 112.500 106.250 L 112.500 125.000 106.250 125.000 L 100.000 125.000 100.000 137.500 L 100.000 150.000 112.500 150.000 L 125.000 150.000 125.000 156.250 L 125.000 162.500 131.250 162.500 L 137.500 162.500 137.500 175.000 L 137.500 187.500 150.000 187.500 L 162.500 187.500 162.500 200.000 L 162.500 212.500 168.750 212.500 L 175.000 212.500 175.000 218.750 L 175.000 225.000 200.000 225.000 L 225.000 225.000 225.000 218.750 L 225.000 212.500 237.500 212.500 L 250.000 212.500 250.000 206.250 L 250.000 200.000 243.750 200.000 L 237.500 200.000 237.500 193.750 L 237.500 187.500 231.250 187.500 L 225.000 187.500 225.000 150.000 L 225.000 112.500 218.750 112.500 L 212.500 112.500 212.500 118.750 L 212.500 125.000 206.250 125.000 L 200.000 125.000 200.000 112.500 L 200.000 100.000 206.250 100.000 L 212.500 100.000 212.500 93.750 L 212.500 87.500 218.750 87.500 L 225.000 87.500 225.000 81.250 L 225.000 75.000 231.250 75.000 L 237.500 75.000 237.500 68.750 L 237.500 62.500 187.500 62.500 L 137.500 62.500 137.500 68.750 M187.500 100.000 L 187.500 112.500 181.250 112.500 L 175.000 112.500 175.000 118.750 L 175.000 125.000 168.750 125.000 L 162.500 125.000 162.500 118.750 L 162.500 112.500 168.750 112.500 L 175.000 112.500 175.000 106.250 L 175.000 100.000 168.750 100.000 L 162.500 100.000 162.500 93.750 L 162.500 87.500 175.000 87.500 L 187.500 87.500 187.500 100.000 M137.500 106.250 L 137.500 112.500 143.750 112.500 L 150.000 112.500 150.000 118.750 L 150.000 125.000 143.750 125.000 L 137.500 125.000 137.500 118.750 L 137.500 112.500 131.250 112.500 L 125.000 112.500 125.000 106.250 L 125.000 100.000 131.250 100.000 L 137.500 100.000 137.500 106.250 M175.000 181.250 L 175.000 187.500 168.750 187.500 L 162.500 187.500 162.500 181.250 L 162.500 175.000 168.750 175.000 L 175.000 175.000 175.000 181.250 M212.500 181.250 L 212.500 187.500 218.750 187.500 L 225.000 187.500 225.000 193.750 L 225.000 200.000 218.750 200.000 L 212.500 200.000 212.500 193.750 L 212.500 187.500 206.250 187.500 L 200.000 187.500 200.000 193.750 L 200.000 200.000 193.750 200.000 L 187.500 200.000 187.500 187.500 L 187.500 175.000 200.000 175.000 L 212.500 175.000 212.500 181.250 " stroke="none" fill="#a97342" fill-rule="evenodd"></path><path id="path7" d="M75.000 68.750 L 75.000 75.000 68.750 75.000 L 62.500 75.000 62.500 106.250 L 62.500 137.500 68.750 137.500 L 75.000 137.500 75.000 143.750 L 75.000 150.000 87.500 150.000 L 100.000 150.000 100.000 137.500 L 100.000 125.000 106.250 125.000 L 112.500 125.000 112.500 118.750 L 112.500 112.500 106.250 112.500 L 100.000 112.500 100.000 106.250 L 100.000 100.000 106.250 100.000 L 112.500 100.000 112.500 93.750 L 112.500 87.500 118.750 87.500 L 125.000 87.500 125.000 81.250 L 125.000 75.000 131.250 75.000 L 137.500 75.000 137.500 68.750 L 137.500 62.500 106.250 62.500 L 75.000 62.500 75.000 68.750 M100.000 93.750 L 100.000 100.000 93.750 100.000 L 87.500 100.000 87.500 93.750 L 87.500 87.500 93.750 87.500 L 100.000 87.500 100.000 93.750 M100.000 118.750 L 100.000 125.000 93.750 125.000 L 87.500 125.000 87.500 118.750 L 87.500 112.500 93.750 112.500 L 100.000 112.500 100.000 118.750 " stroke="none" fill="#ba824f" fill-rule="evenodd"></path><path id="path8" d="M275.000 93.750 L 275.000 100.000 268.750 100.000 L 262.500 100.000 262.500 106.250 L 262.500 112.500 256.250 112.500 L 250.000 112.500 250.000 106.250 L 250.000 100.000 243.750 100.000 L 237.500 100.000 237.500 106.250 L 237.500 112.500 243.750 112.500 L 250.000 112.500 250.000 118.750 L 250.000 125.000 256.250 125.000 L 262.500 125.000 262.500 118.750 L 262.500 112.500 268.750 112.500 L 275.000 112.500 275.000 106.250 L 275.000 100.000 281.250 100.000 L 287.500 100.000 287.500 93.750 L 287.500 87.500 281.250 87.500 L 275.000 87.500 275.000 93.750 " stroke="none" fill="#1aa000" fill-rule="evenodd"></path><path id="path9" d="M62.500 156.250 L 62.500 162.500 56.250 162.500 L 50.000 162.500 50.000 168.750 L 50.000 175.000 43.750 175.000 L 37.500 175.000 37.500 187.500 L 37.500 200.000 43.750 200.000 L 50.000 200.000 50.000 193.750 L 50.000 187.500 56.250 187.500 L 62.500 187.500 62.500 181.250 L 62.500 175.000 68.750 175.000 L 75.000 175.000 75.000 168.750 L 75.000 162.500 100.000 162.500 L 125.000 162.500 125.000 168.750 L 125.000 175.000 131.250 175.000 L 137.500 175.000 137.500 168.750 L 137.500 162.500 131.250 162.500 L 125.000 162.500 125.000 156.250 L 125.000 150.000 93.750 150.000 L 62.500 150.000 62.500 156.250 M262.500 256.250 L 262.500 262.500 275.000 262.500 L 287.500 262.500 287.500 256.250 L 287.500 250.000 275.000 250.000 L 262.500 250.000 262.500 256.250 " stroke="none" fill="#313232" fill-rule="evenodd"></path></g></svg>